<?xml version="1.0" encoding="UTF-8"?>
<svg width="238px" height="80px" viewBox="0 0 238 80" version="1.1" xmlns="http://www.w3.org/2000/svg" xmlns:xlink="http://www.w3.org/1999/xlink">
    <!-- Generator: Sketch 58 (84663) - https://sketch.com -->
    <title>svgLogo</title>
    <desc>Created with Sketch.</desc>
    <defs>
        <linearGradient x1="4.07631161%" y1="50%" x2="95.0143084%" y2="50%" id="linearGradient-1">
            <stop stop-color="#F81C78" offset="0%"></stop>
            <stop stop-color="#FFB258" offset="100%"></stop>
        </linearGradient>
        <linearGradient x1="50%" y1="64.8648649%" x2="50%" y2="100%" id="linearGradient-2">
            <stop stop-color="#F92F72" offset="0%"></stop>
            <stop stop-color="#FFBF44" offset="100%"></stop>
        </linearGradient>
        <linearGradient x1="50%" y1="35.1351351%" x2="50%" y2="100%" id="linearGradient-3">
            <stop stop-color="#F81C78" offset="0%"></stop>
            <stop stop-color="#FFBF44" offset="100%"></stop>
        </linearGradient>
        <path d="M54.5613938,1.26570821 L60.2907016,12.7980575 C61.703591,15.6420196 61.025032,19.0807797 58.6377345,21.1748636 L37,40.155 C34.2194302,42.5940536 29.9880893,42.3172 27.5490357,39.5366302 C25.7537841,37.4900075 25.3761023,34.5602953 26.5936074,32.1252853 L42.0314174,1.24966529 C43.7603421,-2.20818419 47.9650534,-3.60975462 51.4229029,-1.88082988 C52.7830802,-1.20074121 53.8847904,-0.0962061959 54.5613938,1.26570821 Z" id="path-4"></path>
    </defs>
    <g id="Logo" stroke="none" stroke-width="1" fill="none" fill-rule="evenodd">
        <g>
            <g id="Group" transform="translate(22.000000, 15.000000)">
                <path d="M73.322,17.926 C72.596663,17.3366637 71.871337,16.9003347 71.146,16.617 C70.420663,16.3336652 69.7180034,16.192 69.038,16.192 C68.1766624,16.192 67.4740027,16.395998 66.93,16.804 C66.3859973,17.212002 66.114,17.7446634 66.114,18.402 C66.114,18.8553356 66.2499986,19.2293319 66.522,19.524 C66.7940014,19.8186681 67.1509978,20.0736656 67.593,20.289 C68.0350022,20.5043344 68.5336639,20.6913325 69.089,20.85 C69.6443361,21.0086675 70.1939973,21.1786658 70.738,21.36 C72.9140109,22.085337 74.5063283,23.0543273 75.515,24.267 C76.5236717,25.4796727 77.028,27.0606569 77.028,29.01 C77.028,30.3246732 76.8070022,31.5146613 76.365,32.58 C75.9229978,33.6453387 75.2770043,34.5576629 74.427,35.317 C73.5769958,36.0763371 72.5343395,36.6656646 71.299,37.085 C70.0636605,37.5043354 68.6640078,37.714 67.1,37.714 C63.8586505,37.714 60.8553472,36.7506763 58.09,34.824 L60.946,29.452 C61.9433383,30.3360044 62.9293285,30.9933312 63.904,31.424 C64.8786715,31.8546688 65.8419952,32.07 66.794,32.07 C67.8820054,32.07 68.6923307,31.8206692 69.225,31.322 C69.7576693,30.8233308 70.024,30.2566698 70.024,29.622 C70.024,29.2366647 69.9560007,28.9023347 69.82,28.619 C69.6839993,28.3356652 69.4573349,28.0750012 69.14,27.837 C68.8226651,27.5989988 68.4090026,27.378001 67.899,27.174 C67.3889975,26.969999 66.771337,26.7433346 66.046,26.494 C65.1846624,26.2219986 64.3403375,25.9216683 63.513,25.593 C62.6856625,25.2643317 61.9490032,24.8280027 61.303,24.284 C60.6569968,23.7399973 60.1356687,23.0543375 59.739,22.227 C59.3423314,21.3996625 59.144,20.3513397 59.144,19.082 C59.144,17.8126603 59.3536646,16.6623385 59.773,15.631 C60.1923354,14.5996615 60.7816629,13.7156703 61.541,12.979 C62.3003371,12.2423296 63.2296612,11.670002 64.329,11.262 C65.4283388,10.853998 66.6579932,10.65 68.018,10.65 C69.2873397,10.65 70.6133264,10.8256649 71.996,11.177 C73.3786736,11.5283351 74.7046603,12.0439966 75.974,12.724 L73.322,17.926 Z M90.934,17.008 L90.934,37 L84.27,37 L84.27,17.008 L78.796,17.008 L78.796,11.364 L96.408,11.364 L96.408,17.008 L90.934,17.008 Z M113.306,27.48 L110.314,18.946 L107.322,27.48 L113.306,27.48 Z M115.074,32.546 L105.554,32.546 L104.024,37 L96.918,37 L106.676,11.364 L113.952,11.364 L123.71,37 L116.604,37 L115.074,32.546 Z M133.298,22.822 L134.556,22.822 C135.870673,22.822 136.87933,22.5500027 137.582,22.006 C138.28467,21.4619973 138.636,20.6800051 138.636,19.66 C138.636,18.6399949 138.28467,17.8580027 137.582,17.314 C136.87933,16.7699973 135.870673,16.498 134.556,16.498 L133.298,16.498 L133.298,22.822 Z M147.952,37 L139.656,37 L133.298,27.14 L133.298,37 L126.634,37 L126.634,11.364 L137.004,11.364 C138.432007,11.364 139.678661,11.5736646 140.744,11.993 C141.809339,12.4123354 142.687663,12.984663 143.379,13.71 C144.070337,14.435337 144.591665,15.2739952 144.943,16.226 C145.294335,17.1780048 145.47,18.1979946 145.47,19.286 C145.47,21.2353431 144.999671,22.8163273 144.059,24.029 C143.118329,25.2416727 141.730009,26.0633312 139.894,26.494 L147.952,37 Z M159.75,31.356 L170.494,31.356 L170.494,37 L148.564,37 L160.702,17.008 L150.604,17.008 L150.604,11.364 L171.82,11.364 L159.75,31.356 Z M181.68,11.364 L181.68,31.356 L189.67,31.356 L189.67,37 L175.016,37 L175.016,11.364 L181.68,11.364 Z M199.292,24.692 L189.942,11.364 L197.898,11.364 L202.658,18.368 L207.384,11.364 L215.34,11.364 L205.956,24.692 L205.956,37 L199.292,37 L199.292,24.692 Z" id="STARZLY" fill="url(#linearGradient-1)" fill-rule="nonzero"></path>
                <g id="Group-2" fill="#FFFFFF">
                    <polygon id="Star" transform="translate(15.000000, 15.000000) rotate(-39.000000) translate(-15.000000, -15.000000) " points="15 20 9.12214748 23.0901699 10.2447174 16.545085 5.48943484 11.9098301 12.0610737 10.954915 15 5 17.9389263 10.954915 24.5105652 11.9098301 19.7552826 16.545085 20.8778525 23.0901699"></polygon>
                </g>
            </g>
            <g id="Group-5">
                <g id="Group-4">
                    <path d="M45.2609903,13.5219807 L70.9347524,64.8695048 C72.6636772,68.3273543 71.2621067,72.5320656 67.8042572,74.2609903 C66.8322692,74.7469844 65.7604777,75 64.6737621,75 L13.3262379,75 C9.46024467,75 6.32623792,71.8659932 6.32623792,68 C6.32623792,66.9132843 6.57925356,65.8414929 7.06524758,64.8695048 L32.7390097,13.5219807 C34.4679344,10.0641312 38.6726457,8.66256076 42.1304952,10.3914855 C43.485187,11.0688314 44.5836444,12.1672889 45.2609903,13.5219807 Z" id="Triangle" fill="url(#linearGradient-2)" transform="translate(39.000000, 38.000000) rotate(90.000000) translate(-39.000000, -38.000000) "></path>
                    <g id="Group-3" transform="translate(1.935000, 1.000000)">
                        <mask id="mask-5" fill="white">
                            <use xlink:href="#path-4"></use>
                        </mask>
                        <use id="Triangle-Copy" fill="url(#linearGradient-3)" transform="translate(37.000000, 25.687500) rotate(90.000000) translate(-37.000000, -25.687500) " xlink:href="#path-4"></use>
                        <path d="M51.8028815,23.2368342 C50.577262,22.2351541 49.3516608,21.4935367 48.1260413,21.0119598 C46.9004218,20.5303829 45.7131206,20.289598 44.5641023,20.289598 C43.1086791,20.289598 41.921378,20.6363282 41.0021634,21.329799 C40.0829487,22.0232698 39.6233483,22.9286209 39.6233483,24.0458794 C39.6233483,24.8164025 39.8531485,25.4520745 40.3127558,25.9529146 C40.7723632,26.4537546 41.3755887,26.8871673 42.1224506,27.2531658 C42.8693125,27.6191643 43.7119133,27.9370003 44.6502783,28.2066834 C45.5886432,28.4763665 46.5174191,28.7653083 47.4366338,29.0735176 C51.1134924,30.3063546 53.8040699,31.953323 55.508447,34.0144724 C57.2128242,36.0756217 58.065,38.7627808 58.065,42.0760302 C58.065,44.3105472 57.6915746,46.33314 56.9447127,48.1438693 C56.1978508,49.9545987 55.1062998,51.5052532 53.6700269,52.7958794 C52.233754,54.0865056 50.4719524,55.0881706 48.3845691,55.8009045 C46.2971859,56.5136384 43.9321586,56.87 41.2894165,56.87 C35.8124292,56.87 30.7376745,55.2326629 26.065,51.9579397 L29.6578739,42.3205218 C31.3431008,43.8230419 34.2421312,45.4470483 35.8890575,46.1790452 C37.5359837,46.9110422 39.1637352,47.2770352 40.7723609,47.2770352 C42.6107902,47.2770352 43.9800164,46.8532538 44.8800808,46.0056784 C45.7801451,45.158103 46.2301706,44.1949635 46.2301706,43.1162312 C46.2301706,42.4612865 46.1152704,41.8930342 45.8854668,41.4114573 C45.6556631,40.9298803 45.2726628,40.4868362 44.7364542,40.0823116 C44.2002457,39.6777869 43.50127,39.3021625 42.6395063,38.9554271 C41.7777425,38.6086917 40.7340666,38.223436 39.508447,37.7996482 C38.0530238,37.3373344 36.6263475,36.8268705 35.2283752,36.2682412 C33.8304029,35.7096119 32.5856518,34.9679946 31.4940844,34.0433668 C30.402517,33.1187391 29.5216162,31.9533404 28.8513555,30.5471357 C28.1810948,29.140931 27.8459695,27.359123 27.8459695,25.2016583 C27.8459695,23.0441936 28.2002448,21.0890205 28.9088061,19.3360804 C29.6173674,17.5831403 30.6131683,16.0806428 31.8962388,14.8285427 C33.1793092,13.5764427 34.7496107,12.6036718 36.6071903,11.910201 C38.4647699,11.2167302 40.5425469,10.87 42.8405835,10.87 C44.9854177,10.87 47.2259698,11.1685732 49.562307,11.7657286 C51.8986442,12.3628841 54.1391963,13.239341 56.2840305,14.3951256 L51.8028815,23.2368342 Z" id="S" fill-opacity="0.1" fill="#4A4A4A" fill-rule="nonzero" mask="url(#mask-5)" transform="translate(42.065000, 33.870000) rotate(-2.000000) translate(-42.065000, -33.870000) "></path>
                    </g>
                    <g id="Group-6" transform="translate(1.000000, 0.000000)" fill="#FFFFFF" fill-rule="nonzero">
                        <path d="M49.5637343,25.0552764 C48.1083111,23.8358398 46.6529097,22.9330013 45.1974865,22.3467337 C43.7420633,21.7604661 42.3321433,21.4673367 40.967684,21.4673367 C39.239369,21.4673367 37.8294489,21.889443 36.7378815,22.7336683 C35.6463141,23.5778937 35.1005386,24.6800602 35.1005386,26.040201 C35.1005386,26.9782291 35.3734264,27.7520908 35.9192101,28.361809 C36.4649938,28.9715273 37.1813241,29.4991603 38.0682226,29.9447236 C38.9551211,30.390287 39.9557096,30.7772178 41.070018,31.1055276 C42.1843263,31.4338375 43.2872477,31.7855928 44.3788151,32.160804 C48.7450847,33.661649 51.9401455,35.6666541 53.9640934,38.1758794 C55.9880412,40.6851047 57,43.9564287 57,47.9899497 C57,50.7102314 56.5565574,53.1725183 55.6696589,55.3768844 C54.7827604,57.5812506 53.4865435,59.4690039 51.7809695,61.040201 C50.0753954,62.6113981 47.983256,63.8308164 45.5044883,64.6984925 C43.0257207,65.5661685 40.2172509,66 37.0789946,66 C30.5750722,66 24.5488009,64.0067201 19,60.0201005 L23.2665378,48.2875918 C25.2677447,50.1167467 28.7103433,52.0937979 30.6660682,52.9849246 C32.6217931,53.8760514 34.5547481,54.321608 36.464991,54.321608 C38.6481258,54.321608 40.274082,53.8057003 41.3429084,52.7738693 C42.4117348,51.7420384 42.94614,50.5695208 42.94614,49.2562814 C42.94614,48.4589575 42.8096962,47.7671721 42.5368043,47.1809045 C42.2639125,46.5946369 41.8090995,46.0552788 41.1723519,45.5628141 C40.5356042,45.0703493 39.7055706,44.6130674 38.6822262,44.1909548 C37.6588818,43.7688421 36.4195166,43.2998351 34.9640934,42.7839196 C33.2357783,42.2211027 31.5416002,41.5996684 29.8815081,40.919598 C28.221416,40.2395276 26.743274,39.336689 25.4470377,38.2110553 C24.1508014,37.0854215 23.1047317,35.6666752 22.3087971,33.9547739 C21.5128626,32.2428725 21.1149013,30.073715 21.1149013,27.4472362 C21.1149013,24.8207574 21.5356032,22.4405467 22.3770197,20.3065327 C23.2184363,18.1725186 24.4009499,16.3433912 25.9245961,14.8190955 C27.4482422,13.2947997 29.3129752,12.110557 31.518851,11.2663317 C33.7247268,10.4221063 36.1920869,10 38.9210054,10 C41.467996,10 44.1286516,10.3634805 46.9030521,11.0904523 C49.6774525,11.8174241 52.3381082,12.8844151 54.8850987,14.2914573 L49.5637343,25.0552764 Z" id="S-Copy-2" transform="translate(38.000000, 38.000000) rotate(-2.000000) translate(-38.000000, -38.000000) "></path>
                    </g>
                </g>
            </g>
        </g>
    </g>
</svg>